#!OML:ASF F:\VICON\USERDATA\INSTALL\rory3\rory3.ASF
:FULLY-SPECIFIED
:DEGREES
815
root -2.14921 15.573 -31.1708 -306.514 40.5944 30.9283
lowerback -16.5971 -8.43783 4.16808
upperback -13.4439 -11.3783 0.456642
thorax -6.1116 -6.00508 -2.94726
lowerneck -11.9985 -2.83367 -5.68907
upperneck 44.0535 -2.24253 0.104782
head 18.8761 -1.62254 0.73956
rclavicle -3.45885e-014 2.70347e-014
rhumerus 8.69058 -35.8683 -4.55652
rradius 27.6634
rwrist -9.93031
rhand -2.87334 11.5183
rfingers 7.12502
rthumb 22.8355 -17.1498
lclavicle -3.45885e-014 2.70347e-014
lhumerus 31.6121 5.79855 9.55819
lradius 30.1417
lwrist -30.7142
lhand -15.9824 11.9668
lfingers 7.12502
lthumb 10.2172 41.6986
rfemur -92.6374 -39.2218 399.959
rtibia 63.9376
rfoot 141.855 147.832
rtoes 25.0346
lfemur -19.9912 -8.99097 -24.065
ltibia 32.1055
lfoot 0.292503 17.0116
ltoes -45.6455
816
root -2.1539 15.5271 -31.2541 -306.66 40.8263 30.3467
lowerback -16.6357 -8.35543 4.44174
upperback -13.9463 -11.2714 0.521931
thorax -6.70402 -5.98154 -2.95912
lowerneck -11.0421 -2.79689 -5.49771
upperneck 44.0033 -2.32353 0.135401
head 18.5732 -1.61623 0.717417
rclavicle -5.56597e-015 4.77083e-015
rhumerus 7.2219 -34.1373 -3.66217
rradius 27.7303
rwrist -9.66517
rhand -2.4247 11.0997
rfingers 7.12502
rthumb 23.266 -17.5146
lclavicle -5.56597e-015 4.77083e-015
lhumerus 31.5408 5.27785 9.95002
lradius 29.7568
lwrist -30.8269
lhand -15.5934 12.4815
lfingers 7.12502
lthumb 10.5924 42.1946
rfemur -93.131 -38.7334 400.486
rtibia 64.1477
rfoot 141.004 148.453
rtoes 27.0587
lfemur -20.4108 -9.44431 -24.1866
ltibia 32.2424
lfoot -0.353303 17.7489
ltoes -48.1608
817
root -2.15895 15.4861 -31.3351 -306.909 41.0504 29.8154
lowerback -16.6916 -8.1758 4.38854
upperback -14.215 -11.0026 0.580789
thorax -6.93367 -5.83824 -2.83187
lowerneck -10.3678 -2.89468 -4.92225
upperneck 43.8087 -2.52934 -0.235083
head 18.2471 -1.64636 0.411475
rclavicle 1.10325e-014 -1.59028e-015
rhumerus 5.56775 -33.2733 -2.40233
rradius 27.6782
rwrist -8.93302
rhand -1.823 10.8771
rfingers 7.12502
rthumb 23.8431 -17.6631
lclavicle 1.10325e-014 -1.59028e-015
lhumerus 31.9922 5.26287 10.8679
lradius 29.2805
lwrist -31.1647
lhand -15.1628 12.5527
lfingers 7.12502
lthumb 11.0077 42.2441
rfemur -93.6542 -38.3673 401.004
rtibia 64.5092
rfoot 140.744 148.769
rtoes 28.1259
lfemur -20.5988 -9.6694 -24.4035
ltibia 32.3657
lfoot -0.303061 18.396
ltoes -50.691
818
root -2.16512 15.4301 -31.4127 -307.287 41.2657 29.2084
lowerback -17.1884 -8.06843 3.80191
upperback -14.1626 -10.7767 0.913777
thorax -6.39466 -5.64067 -2.25652
lowerneck -9.95607 -3.14776 -5.22072
upperneck 43.8218 -2.96895 0.036921
head 18.1765 -1.82956 0.524466
rclavicle 1.0138e-014 -7.63333e-014
rhumerus 4.21807 -32.9311 -0.978531
rradius 27.5864
rwrist -8.36804
rhand -1.17531 10.7996
rfingers 7.12502
rthumb 24.4642 -17.6581
lclavicle 1.0138e-014 -7.63333e-014
lhumerus 32.5131 6.11907 12.4344
lradius 28.7168
lwrist -31.9398
lhand -14.5428 12.3405
lfingers 7.12502
lthumb 11.6057 41.9991
rfemur -93.4576 -37.8925 400.842
rtibia 64.7884
rfoot 138.9 150.913
rtoes 32.8812
lfemur -20.7324 -9.95323 -24.5576
ltibia 32.4245
lfoot -0.751678 19.4891
ltoes -53.161
819
root -2.17213 15.3842 -31.4759 -307.991 41.4594 28.5243
lowerback -16.8133 -8.19221 4.21876
upperback -13.8973 -10.9962 1.23936
thorax -6.31512 -5.7674 -2.12373
lowerneck -11.9667 -2.95774 -5.32425
upperneck 44.1393 -2.55553 0.0830278
head 18.9217 -1.68508 0.605753
rclavicle -1.2424e-013 -1.90833e-014
rhumerus 4.06392 -32.8518 -1.03638
rradius 27.5477
rwrist -8.19224
rhand -0.882032 10.6233
rfingers 7.12502
rthumb 24.7453 -17.7961
lclavicle -1.2424e-013 -1.90833e-014
lhumerus 32.0318 7.61284 12.6722
lradius 28.3408
lwrist -32.2397
lhand -13.9059 12.0521
lfingers 7.12502
lthumb 12.2199 41.6751
rfemur -93.1995 -37.5744 400.806
rtibia 65.1897
rfoot 137.7 152.3
rtoes 35.4745
lfemur -20.436 -9.74876 -24.7852
ltibia 32.4375
lfoot -1.2307 20.5162
ltoes -55.2134
820
root -2.17226 15.3494 -31.5617 -308.228 41.4961 27.8547
lowerback -17.2118 -7.90282 4.28681
upperback -13.704 -10.635 1.18951
thorax -5.88301 -5.58136 -2.26323
lowerneck -12.5275 -3.18529 -4.91938
upperneck 44.0893 -3.04847 0.149347
head 19.053 -1.80121 0.462815
rclavicle 7.35503e-014 2.38542e-014
rhumerus 1.81616 -32.099 0.581646
rradius 27.9123
rwrist -8.63796
rhand -0.718802 10.2926
rfingers 7.12502
rthumb 24.9017 -18.1053
lclavicle 7.35503e-014 2.38542e-014
lhumerus 32.9823 8.59072 13.501
lradius 27.8093
lwrist -32.3772
lhand -13.3261 11.521
lfingers 7.12502
lthumb 12.7789 41.1099
rfemur -94.4535 -37.1533 401.752
rtibia 65.4134
rfoot 140.259 149.408
rtoes 30.724
lfemur -20.6751 -9.80963 -25.1319
ltibia 32.2443
lfoot -2.67428 22.0363
ltoes -56.4884
821
root -2.17306 15.3121 -31.6726 -307.67 41.3904 27.2827
lowerback -18.0607 -7.71623 4.36716
upperback -13.9629 -10.3916 1.44343
thorax -5.68718 -5.44706 -2.1173
lowerneck -12.7038 -3.19633 -4.84814
upperneck 44.0576 -3.05812 0.0981888
head 19.0787 -1.79849 0.420747
rclavicle -4.39314e-014 -6.20208e-014
rhumerus 0.699822 -31.6794 1.56002
rradius 28.0127
rwrist -8.41526
rhand -0.623834 10.0123
rfingers 7.12502
rthumb 24.9927 -18.3729
lclavicle -4.39314e-014 -6.20208e-014
lhumerus 33.285 9.41949 14.3265
lradius 27.2607
lwrist -32.4387
lhand -12.7201 11.3961
lfingers 7.12502
lthumb 13.363 40.9476
rfemur -96.5021 -36.297 402.513
rtibia 65.4971
rfoot 143.345 146.578
rtoes 25.8793
lfemur -21.8003 -9.65759 -25.6594
ltibia 32.1529
lfoot -5.26234 23.5083
ltoes -56.7907
822
root -2.18425 15.2768 -31.7146 -309.052 41.4895 26.6355
lowerback -17.1305 -7.74319 4.39619
upperback -13.7536 -10.4249 1.39398
thorax -5.9422 -5.47116 -2.07333
lowerneck -13.5375 -3.09591 -4.59131
upperneck 44.4227 -3.00681 0.225338
head 19.5507 -1.71862 0.430869
rclavicle 9.10434e-014 6.04305e-014
rhumerus -0.0442519 -31.4335 1.59411
rradius 27.8676
rwrist -7.80549
rhand -0.901426 9.73307
rfingers 7.12502
rthumb 24.7267 -18.6889
lclavicle 9.10434e-014 6.04305e-014
lhumerus 33.3767 9.68441 14.1677
lradius 26.9738
lwrist -32.0245
lhand -12.1401 11.7409
lfingers 7.12502
lthumb 13.922 41.2549
rfemur -95.4274 -36.2376 401.346
rtibia 65.643
rfoot 145.098 144.536
rtoes 22.4993
lfemur -20.4997 -8.44789 -26.1508
ltibia 32.1441
lfoot -9.03991 23.7158
ltoes -56.4289
823
root -2.18614 15.21 -31.8354 -308.794 41.4788 25.7768
lowerback -18.1544 -7.53012 4.32541
upperback -13.9338 -10.1296 1.81734
thorax -5.49917 -5.28312 -1.70144
lowerneck -12.9192 -3.19092 -4.6746
upperneck 44.0129 -3.1503 0.206387
head 19.1093 -1.79064 0.420933
rclavicle 1.3577e-013 4.77083e-015
rhumerus -0.72471 -31.4393 2.36846
rradius 27.7215
rwrist -7.3797
rhand -1.23199 9.50104
rfingers 7.12502
rthumb 24.4098 -18.964
lclavicle 1.3577e-013 4.77083e-015
lhumerus 33.801 10.4054 15.2961
lradius 26.5657
lwrist -32.2056
lhand -11.582 11.9175
lfingers 7.12502
lthumb 14.4598 41.3937
rfemur -97.1173 -35.4428 402.326
rtibia 65.5404
rfoot 146.775 143.596
rtoes 20.7873
lfemur -21.8646 -8.05503 -26.5209
ltibia 32.9935
lfoot -9.9451 25.2919
ltoes -56.9867
824
root -2.18984 15.1308 -31.9579 -308.525 41.5519 24.9489
lowerback -18.8687 -7.332 4.95995
upperback -14.1128 -9.95771 2.0014
thorax -5.41644 -5.23331 -1.9001
lowerneck -13.1366 -3.13043 -4.56016
upperneck 43.8668 -3.10447 0.239854
head 19.0701 -1.75146 0.421388
rclavicle 1.13009e-013 5.24792e-014
rhumerus -1.02187 -32.1206 2.29012
rradius 27.3808
rwrist -6.5757
rhand -1.48185 9.47436
rfingers 7.12502
rthumb 24.1703 -19.0228
lclavicle 1.13009e-013 5.24792e-014
lhumerus 34.0649 11.1369 15.6636
lradius 26.3063
lwrist -32.2757
lhand -10.7396 12.2927
lfingers 7.12502
lthumb 15.2713 41.709
rfemur -99.0403 -34.7092 403.741
rtibia 65.7912
rfoot 147.694 143.448
rtoes 20.4896
lfemur -22.9783 -7.43252 -26.9689
ltibia 33.215
lfoot -4.58187 27.9791
ltoes -58.3096
